<svg width="16" height="17" viewBox="0 0 16 17" fill="none" xmlns="http://www.w3.org/2000/svg">
<path d="M12.3605 13.2128C12.2709 13.3024 12.1484 13.3589 12.0069 13.3589L6.2841 13.3589C6.01068 13.3589 5.78441 13.1327 5.78441 12.8593C5.78441 12.5858 6.01068 12.3596 6.2841 12.3596L11.5073 12.3596L11.5073 7.1364C11.5073 6.86299 11.7335 6.63671 12.0069 6.63671C12.2804 6.63671 12.5066 6.86299 12.5066 7.1364L12.5066 12.8593C12.5066 13.0007 12.4501 13.1232 12.3605 13.2128Z" fill="white"/>
<path d="M12.2803 13.1326C12.0871 13.3259 11.7665 13.3259 11.5732 13.1326L3.6395 5.19889C3.44623 5.00561 3.44623 4.68506 3.6395 4.49178C3.83278 4.29851 4.15333 4.29851 4.34661 4.49178L12.2803 12.4255C12.4736 12.6188 12.4736 12.9394 12.2803 13.1326Z" fill="white"/>
</svg>
