<svg width="17" height="15" viewBox="0 0 17 15" fill="none" xmlns="http://www.w3.org/2000/svg">
<path d="M15.1823 2.67337H12.9243L11.8098 1.00043C11.7668 0.935908 11.7084 0.883029 11.64 0.846494C11.5716 0.809959 11.4952 0.790901 11.4176 0.791016H6.39803C6.32047 0.790901 6.24408 0.809959 6.17567 0.846494C6.10725 0.883029 6.04892 0.935908 6.00588 1.00043L4.89058 2.67337H2.63333C2.1757 2.67337 1.73681 2.85516 1.41322 3.17875C1.08963 3.50235 0.907837 3.94123 0.907837 4.39886V13.1832C0.907837 13.6408 1.08963 14.0797 1.41322 14.4033C1.73681 14.7269 2.1757 14.9087 2.63333 14.9087H15.1823C15.64 14.9087 16.0789 14.7269 16.4025 14.4033C16.726 14.0797 16.9078 13.6408 16.9078 13.1832V4.39886C16.9078 3.94123 16.726 3.50235 16.4025 3.17875C16.0789 2.85516 15.64 2.67337 15.1823 2.67337ZM15.9667 13.1832C15.9667 13.3912 15.884 13.5907 15.7369 13.7378C15.5899 13.8849 15.3904 13.9675 15.1823 13.9675H2.63333C2.42531 13.9675 2.22582 13.8849 2.07873 13.7378C1.93165 13.5907 1.84901 13.3912 1.84901 13.1832V4.39886C1.84901 4.19085 1.93165 3.99135 2.07873 3.84427C2.22582 3.69718 2.42531 3.61455 2.63333 3.61455H5.14313C5.22069 3.61466 5.29708 3.5956 5.3655 3.55907C5.43391 3.52253 5.49224 3.46965 5.53529 3.40513L6.6498 1.73219H11.1651L12.2804 3.40513C12.3234 3.46965 12.3818 3.52253 12.4502 3.55907C12.5186 3.5956 12.595 3.61466 12.6725 3.61455H15.1823C15.3904 3.61455 15.5899 3.69718 15.7369 3.84427C15.884 3.99135 15.9667 4.19085 15.9667 4.39886V13.1832ZM8.90784 5.18317C8.25632 5.18317 7.61944 5.37637 7.07772 5.73833C6.53601 6.10029 6.11379 6.61477 5.86447 7.21669C5.61515 7.81861 5.54991 8.48094 5.67701 9.11994C5.80412 9.75894 6.11785 10.3459 6.57854 10.8066C7.03923 11.2673 7.62619 11.581 8.26519 11.7081C8.90418 11.8352 9.56652 11.77 10.1684 11.5207C10.7704 11.2713 11.2848 10.8491 11.6468 10.3074C12.0088 9.76569 12.202 9.12881 12.202 8.47729C12.202 7.60364 11.8549 6.76576 11.2371 6.148C10.6194 5.53023 9.78149 5.18317 8.90784 5.18317ZM8.90784 10.8302C8.44247 10.8302 7.98755 10.6922 7.60061 10.4337C7.21367 10.1751 6.91209 9.80767 6.734 9.37772C6.55591 8.94778 6.50932 8.47468 6.60011 8.01825C6.6909 7.56183 6.91499 7.14257 7.24406 6.81351C7.57312 6.48445 7.99238 6.26035 8.4488 6.16956C8.90523 6.07877 9.37832 6.12537 9.80827 6.30346C10.2382 6.48154 10.6057 6.78313 10.8642 7.17007C11.1228 7.55701 11.2608 8.01192 11.2608 8.47729C11.2608 9.10133 11.0129 9.69981 10.5716 10.1411C10.1304 10.5823 9.53188 10.8302 8.90784 10.8302Z" fill="#195B3E"/>
</svg>
