<svg width="20" height="21" viewBox="0 0 20 21" fill="none" xmlns="http://www.w3.org/2000/svg">
<path d="M16.6417 8.41937H3.30832V15.086C3.30832 17.586 4.14165 18.4194 6.64165 18.4194H13.3083C15.8083 18.4194 16.6417 17.586 16.6417 15.086V8.41937Z" stroke="white" stroke-width="1.5" stroke-miterlimit="10" stroke-linecap="round" stroke-linejoin="round"/>
<path d="M17.9167 5.91941V6.75275C17.9167 7.66941 17.475 8.41941 16.25 8.41941H3.75001C2.47501 8.41941 2.08334 7.66941 2.08334 6.75275V5.91941C2.08334 5.00275 2.47501 4.25275 3.75001 4.25275H16.25C17.475 4.25275 17.9167 5.00275 17.9167 5.91941Z" stroke="white" stroke-width="1.5" stroke-miterlimit="10" stroke-linecap="round" stroke-linejoin="round"/>
<path d="M9.70001 4.25274H5.10001C4.81668 3.9444 4.82501 3.46941 5.12501 3.16941L6.30835 1.98607C6.61668 1.67774 7.12501 1.67774 7.43335 1.98607L9.70001 4.25274Z" stroke="white" stroke-width="1.5" stroke-miterlimit="10" stroke-linecap="round" stroke-linejoin="round"/>
<path d="M14.8917 4.25274H10.2917L12.5583 1.98607C12.8667 1.67774 13.375 1.67774 13.6833 1.98607L14.8667 3.16941C15.1667 3.46941 15.175 3.9444 14.8917 4.25274Z" stroke="white" stroke-width="1.5" stroke-miterlimit="10" stroke-linecap="round" stroke-linejoin="round"/>
<path d="M7.45001 8.41937V12.7027C7.45001 13.3694 8.18335 13.761 8.74168 13.4027L9.52501 12.886C9.80835 12.7027 10.1667 12.7027 10.4417 12.886L11.1833 13.386C11.7333 13.7527 12.475 13.361 12.475 12.6944V8.41937H7.45001Z" stroke="white" stroke-width="1.5" stroke-miterlimit="10" stroke-linecap="round" stroke-linejoin="round"/>
</svg>
