<svg width="20" height="21" viewBox="0 0 20 21" fill="#fff" xmlns="http://www.w3.org/2000/svg">
<path d="M8.42103 2.77621L8.42142 2.7759C9.294 2.07509 10.7009 2.07852 11.588 2.78512C11.5881 2.78522 11.5883 2.78532 11.5884 2.78543L17.0441 7.14996C17.3446 7.39564 17.6092 7.78422 17.7808 8.23329C17.9523 8.68197 18.0146 9.14842 17.9563 9.53205L16.9074 15.8089C16.9073 15.8093 16.9072 15.8098 16.9071 15.8103C16.7058 16.9649 15.5782 17.9194 14.4167 17.9194H5.58332C4.40385 17.9194 3.30252 16.9887 3.10129 15.8192C3.10124 15.8188 3.10118 15.8185 3.10112 15.8182L2.05149 9.53699L2.05129 9.53584C1.98581 9.14952 2.04413 8.68234 2.21509 8.23401C2.38603 7.78574 2.65384 7.39764 2.96183 7.15191L2.9627 7.15121L8.42103 2.77621ZM9.99999 16.2111C10.6178 16.2111 11.125 15.7039 11.125 15.0861V12.5861C11.125 11.9683 10.6178 11.4611 9.99999 11.4611C9.38218 11.4611 8.87499 11.9683 8.87499 12.5861V15.0861C8.87499 15.7039 9.38218 16.2111 9.99999 16.2111Z" fill="white" stroke="white"/>
</svg>
