<svg width="258" height="215" viewBox="0 0 258 215" fill="none" xmlns="http://www.w3.org/2000/svg">
<ellipse cx="129.665" cy="183.259" rx="57.6074" ry="12.5417" fill="#EBEBEB"/>
<path d="M144.937 179.686L135.554 169.62C134.587 168.583 134.106 167.185 134.23 165.773L141.363 84.7241C141.63 81.6835 144.536 79.5901 147.505 80.2991L200.632 92.9859C203.32 93.628 204.978 96.3304 204.332 99.0184L188.117 166.436C187.708 168.138 186.438 169.502 184.769 170.032L150.108 181.042C148.267 181.627 146.254 181.099 144.937 179.686Z" fill="white" stroke="#CAD0D4" stroke-width="2"/>
<path d="M141.993 177.262L132.61 167.196C131.643 166.159 131.162 164.76 131.286 163.348L138.419 82.2997C138.686 79.2592 141.592 77.1658 144.561 77.8748L197.688 90.5616C200.377 91.2037 202.034 93.9061 201.388 96.594L185.173 164.012C184.764 165.714 183.494 167.078 181.826 167.608L147.164 178.618C145.323 179.202 143.31 178.675 141.993 177.262Z" fill="#ECF3F7" stroke="#43755F" stroke-width="2"/>
<path d="M222.915 127.975C223.973 127.038 225.613 128.003 225.307 129.383L224.019 135.2C223.882 135.817 224.158 136.453 224.703 136.774L229.837 139.796C231.055 140.514 230.644 142.372 229.236 142.507L223.306 143.079C222.677 143.14 222.158 143.599 222.021 144.217L220.733 150.033C220.427 151.414 218.533 151.597 217.969 150.3L215.593 144.837C215.34 144.257 214.743 143.905 214.114 143.966L208.184 144.538C206.776 144.674 206.017 142.929 207.076 141.992L211.538 138.044C212.011 137.625 212.161 136.948 211.909 136.368L209.532 130.905C208.968 129.609 210.393 128.348 211.611 129.065L216.745 132.088C217.29 132.409 217.98 132.342 218.453 131.923L222.915 127.975Z" fill="white"/>
<mask id="path-5-inside-1_7968_23104" fill="white">
<path fill-rule="evenodd" clip-rule="evenodd" d="M223.306 135.042L224.595 129.226C224.747 128.535 223.928 128.053 223.398 128.521L218.937 132.47C218.227 133.098 217.192 133.198 216.375 132.717L211.241 129.694C210.632 129.335 209.919 129.966 210.201 130.614L212.578 136.077C212.956 136.947 212.732 137.962 212.021 138.59L207.56 142.539C207.031 143.007 207.41 143.88 208.114 143.812L214.044 143.24C214.988 143.149 215.884 143.676 216.262 144.546L218.639 150.009C218.921 150.657 219.867 150.566 220.02 149.875L221.309 144.059C221.514 143.133 222.292 142.444 223.236 142.353L229.166 141.781C229.87 141.713 230.076 140.784 229.467 140.425L224.333 137.403C223.515 136.921 223.101 135.968 223.306 135.042ZM225.307 129.383C225.613 128.003 223.973 127.038 222.915 127.975L218.453 131.923C217.98 132.342 217.29 132.409 216.745 132.088L211.611 129.065C210.393 128.348 208.968 129.609 209.532 130.905L211.909 136.368C212.161 136.948 212.011 137.625 211.538 138.044L207.076 141.992C206.017 142.929 206.776 144.674 208.184 144.538L214.114 143.966C214.743 143.905 215.34 144.257 215.593 144.837L217.969 150.3C218.533 151.597 220.427 151.414 220.733 150.033L222.021 144.217C222.158 143.599 222.677 143.14 223.306 143.079L229.236 142.507C230.644 142.371 231.055 140.514 229.837 139.796L224.703 136.774C224.158 136.453 223.882 135.817 224.019 135.2L225.307 129.383Z"/>
</mask>
<path fill-rule="evenodd" clip-rule="evenodd" d="M223.306 135.042L224.595 129.226C224.747 128.535 223.928 128.053 223.398 128.521L218.937 132.47C218.227 133.098 217.192 133.198 216.375 132.717L211.241 129.694C210.632 129.335 209.919 129.966 210.201 130.614L212.578 136.077C212.956 136.947 212.732 137.962 212.021 138.59L207.56 142.539C207.031 143.007 207.41 143.88 208.114 143.812L214.044 143.24C214.988 143.149 215.884 143.676 216.262 144.546L218.639 150.009C218.921 150.657 219.867 150.566 220.02 149.875L221.309 144.059C221.514 143.133 222.292 142.444 223.236 142.353L229.166 141.781C229.87 141.713 230.076 140.784 229.467 140.425L224.333 137.403C223.515 136.921 223.101 135.968 223.306 135.042ZM225.307 129.383C225.613 128.003 223.973 127.038 222.915 127.975L218.453 131.923C217.98 132.342 217.29 132.409 216.745 132.088L211.611 129.065C210.393 128.348 208.968 129.609 209.532 130.905L211.909 136.368C212.161 136.948 212.011 137.625 211.538 138.044L207.076 141.992C206.017 142.929 206.776 144.674 208.184 144.538L214.114 143.966C214.743 143.905 215.34 144.257 215.593 144.837L217.969 150.3C218.533 151.597 220.427 151.414 220.733 150.033L222.021 144.217C222.158 143.599 222.677 143.14 223.306 143.079L229.236 142.507C230.644 142.371 231.055 140.514 229.837 139.796L224.703 136.774C224.158 136.453 223.882 135.817 224.019 135.2L225.307 129.383Z" fill="#ECF3F7"/>
<path d="M224.595 129.226L226.547 129.658L226.547 129.658L224.595 129.226ZM223.306 135.042L221.353 134.61L221.353 134.61L223.306 135.042ZM223.398 128.521L224.724 130.019L224.724 130.019L223.398 128.521ZM218.937 132.47L220.262 133.967L220.262 133.967L218.937 132.47ZM210.201 130.614L208.367 131.412L208.367 131.412L210.201 130.614ZM212.578 136.077L210.744 136.875L210.744 136.875L212.578 136.077ZM212.021 138.59L213.347 140.088L213.347 140.088L212.021 138.59ZM207.56 142.539L206.235 141.041L206.235 141.041L207.56 142.539ZM208.114 143.812L207.922 141.821L207.922 141.821L208.114 143.812ZM214.044 143.24L213.852 141.249L214.044 143.24ZM216.262 144.546L218.096 143.748L218.096 143.748L216.262 144.546ZM218.639 150.009L216.805 150.806L216.805 150.806L218.639 150.009ZM220.02 149.875L218.068 149.443L218.068 149.443L220.02 149.875ZM221.309 144.059L219.356 143.626L219.356 143.626L221.309 144.059ZM223.236 142.353L223.044 140.362L223.236 142.353ZM229.166 141.781L228.974 139.79L228.974 139.79L229.166 141.781ZM222.915 127.975L224.24 129.472L224.24 129.472L222.915 127.975ZM225.307 129.383L223.354 128.951L223.354 128.951L225.307 129.383ZM218.453 131.923L217.128 130.425L217.128 130.425L218.453 131.923ZM209.532 130.905L211.366 130.107L211.366 130.107L209.532 130.905ZM211.909 136.368L210.075 137.166L210.075 137.166L211.909 136.368ZM211.538 138.044L212.863 139.541L212.863 139.541L211.538 138.044ZM207.076 141.992L205.751 140.494L205.751 140.494L207.076 141.992ZM208.184 144.538L207.992 142.547L207.992 142.547L208.184 144.538ZM214.114 143.966L213.922 141.975L214.114 143.966ZM215.593 144.837L213.759 145.635L213.759 145.635L215.593 144.837ZM217.969 150.3L219.803 149.502L219.803 149.502L217.969 150.3ZM220.733 150.033L218.78 149.601L218.78 149.601L220.733 150.033ZM222.021 144.217L220.069 143.784L220.069 143.784L222.021 144.217ZM223.306 143.079L223.114 141.089L223.306 143.079ZM229.236 142.507L229.429 144.498L229.429 144.498L229.236 142.507ZM224.019 135.2L225.971 135.633L225.971 135.633L224.019 135.2ZM222.642 128.793L221.353 134.61L225.259 135.475L226.547 129.658L222.642 128.793ZM224.724 130.019C223.802 130.834 222.376 129.994 222.642 128.793L226.547 129.658C227.119 127.076 224.053 125.271 222.073 127.024L224.724 130.019ZM220.262 133.967L224.724 130.019L222.073 127.024L217.611 130.972L220.262 133.967ZM215.36 134.44C216.924 135.361 218.903 135.17 220.262 133.967L217.611 130.972C217.55 131.026 217.46 131.035 217.39 130.993L215.36 134.44ZM210.226 131.417L215.36 134.44L217.39 130.993L212.256 127.971L210.226 131.417ZM212.035 129.816C212.526 130.945 211.287 132.042 210.226 131.417L212.256 127.971C209.977 126.629 207.313 128.987 208.367 131.412L212.035 129.816ZM214.412 135.279L212.035 129.816L208.367 131.412L210.744 136.875L214.412 135.279ZM213.347 140.088C214.706 138.885 215.136 136.944 214.412 135.279L210.744 136.875C210.777 136.95 210.757 137.038 210.696 137.093L213.347 140.088ZM208.886 144.036L213.347 140.088L210.696 137.093L206.235 141.041L208.886 144.036ZM207.922 141.821C209.147 141.703 209.807 143.221 208.886 144.036L206.235 141.041C204.254 142.794 205.674 146.056 208.306 145.802L207.922 141.821ZM213.852 141.249L207.922 141.821L208.306 145.802L214.236 145.23L213.852 141.249ZM218.096 143.748C217.372 142.083 215.659 141.075 213.852 141.249L214.236 145.23C214.318 145.222 214.395 145.268 214.428 145.343L218.096 143.748ZM220.473 149.211L218.096 143.748L214.428 145.343L216.805 150.806L220.473 149.211ZM218.068 149.443C218.334 148.242 219.982 148.083 220.473 149.211L216.805 150.806C217.859 153.231 221.401 152.89 221.973 150.308L218.068 149.443ZM219.356 143.626L218.068 149.443L221.973 150.308L223.261 144.491L219.356 143.626ZM223.044 140.362C221.238 140.536 219.749 141.854 219.356 143.626L223.261 144.491C223.279 144.411 223.347 144.351 223.428 144.344L223.044 140.362ZM228.974 139.79L223.044 140.362L223.428 144.344L229.358 143.772L228.974 139.79ZM228.452 142.149C227.392 141.525 227.75 139.908 228.974 139.79L229.358 143.772C231.991 143.518 232.76 140.044 230.481 138.702L228.452 142.149ZM223.318 139.126L228.452 142.149L230.481 138.702L225.348 135.679L223.318 139.126ZM221.353 134.61C220.961 136.382 221.754 138.205 223.318 139.126L225.348 135.679C225.277 135.637 225.241 135.555 225.259 135.475L221.353 134.61ZM224.24 129.472C224.171 129.533 224.052 129.592 223.91 129.601C223.784 129.609 223.681 129.577 223.608 129.533C223.534 129.49 223.456 129.416 223.402 129.302C223.341 129.173 223.335 129.041 223.354 128.951L227.26 129.816C227.985 126.544 224.099 124.256 221.589 126.477L224.24 129.472ZM219.779 133.421L224.24 129.472L221.589 126.477L217.128 130.425L219.779 133.421ZM215.73 133.811C217.022 134.572 218.656 134.414 219.779 133.421L217.128 130.425C217.303 130.27 217.558 130.246 217.76 130.364L215.73 133.811ZM210.597 130.788L215.73 133.811L217.76 130.364L212.626 127.342L210.597 130.788ZM211.366 130.107C211.403 130.192 211.421 130.323 211.387 130.461C211.355 130.584 211.293 130.671 211.229 130.727C211.165 130.784 211.071 130.836 210.945 130.852C210.804 130.87 210.676 130.835 210.597 130.788L212.626 127.342C209.738 125.641 206.361 128.63 207.698 131.703L211.366 130.107ZM213.743 135.57L211.366 130.107L207.698 131.703L210.075 137.166L213.743 135.57ZM212.863 139.541C213.986 138.548 214.341 136.945 213.743 135.57L210.075 137.166C209.981 136.951 210.037 136.701 210.212 136.546L212.863 139.541ZM208.402 143.49L212.863 139.541L210.212 136.546L205.751 140.494L208.402 143.49ZM207.992 142.547C208.083 142.539 208.214 142.562 208.334 142.637C208.441 142.705 208.505 142.791 208.539 142.87C208.573 142.948 208.593 143.054 208.57 143.178C208.543 143.318 208.471 143.429 208.402 143.49L205.751 140.494C203.241 142.716 205.04 146.851 208.376 146.529L207.992 142.547ZM213.922 141.975L207.992 142.547L208.376 146.529L214.306 145.957L213.922 141.975ZM217.427 144.039C216.829 142.665 215.414 141.831 213.922 141.975L214.306 145.957C214.073 145.979 213.852 145.849 213.759 145.635L217.427 144.039ZM219.803 149.502L217.427 144.039L213.759 145.635L216.135 151.098L219.803 149.502ZM218.78 149.601C218.8 149.511 218.862 149.394 218.972 149.303C219.069 149.222 219.171 149.188 219.256 149.18C219.341 149.172 219.448 149.185 219.559 149.246C219.683 149.315 219.767 149.418 219.803 149.502L216.135 151.098C217.472 154.171 221.961 153.738 222.686 150.466L218.78 149.601ZM220.069 143.784L218.78 149.601L222.686 150.466L223.974 144.649L220.069 143.784ZM223.114 141.089C221.622 141.232 220.393 142.321 220.069 143.784L223.974 144.649C223.923 144.878 223.731 145.048 223.498 145.07L223.114 141.089ZM229.044 140.517L223.114 141.089L223.498 145.07L229.429 144.498L229.044 140.517ZM228.822 141.52C228.743 141.473 228.651 141.378 228.598 141.246C228.551 141.128 228.55 141.021 228.569 140.937C228.587 140.854 228.633 140.757 228.726 140.67C228.829 140.573 228.953 140.525 229.044 140.517L229.429 144.498C232.765 144.176 233.74 139.774 230.852 138.073L228.822 141.52ZM223.688 138.497L228.822 141.52L230.852 138.073L225.718 135.05L223.688 138.497ZM222.066 134.768C221.742 136.231 222.397 137.737 223.688 138.497L225.718 135.05C225.92 135.169 226.022 135.404 225.971 135.633L222.066 134.768ZM223.354 128.951L222.066 134.768L225.971 135.633L227.26 129.816L223.354 128.951Z" fill="#A5AAAD" mask="url(#path-5-inside-1_7968_23104)"/>
<circle cx="151.08" cy="160.145" r="6.97168" fill="#ECF3F7" stroke="#A5AAAD" stroke-width="2"/>
<circle cx="100.141" cy="24.5623" r="4.47827" fill="white" stroke="#878C8F" stroke-width="2"/>
<path d="M163.943 35.1661C163.943 34.0944 164.811 33.2256 165.883 33.2256C166.955 33.2256 167.824 34.0944 167.824 35.1661V52.118C167.824 53.1898 166.955 54.0586 165.883 54.0586C164.811 54.0586 163.943 53.1898 163.943 52.118V35.1661Z" fill="#A5AAAD"/>
<path d="M174.359 41.7017C175.431 41.7017 176.3 42.5705 176.3 43.6422C176.3 44.7139 175.431 45.5828 174.359 45.5828L157.407 45.5828C156.335 45.5828 155.467 44.7139 155.467 43.6422C155.467 42.5705 156.335 41.7017 157.407 41.7017L174.359 41.7017Z" fill="#A5AAAD"/>
<path d="M185.465 64.9189C185.979 64.9189 186.396 65.3361 186.396 65.8506C186.396 66.3651 185.979 66.7822 185.465 66.7822H177.231C176.717 66.7822 176.3 66.3651 176.3 65.8506C176.3 65.3361 176.717 64.9189 177.231 64.9189L185.465 64.9189Z" fill="#A5AAAD"/>
<path d="M180.416 61.7339C180.416 61.2194 180.833 60.8022 181.348 60.8022C181.863 60.8022 182.28 61.2194 182.28 61.7339V69.9673C182.28 70.4818 181.863 70.8989 181.348 70.8989C180.833 70.8989 180.416 70.4818 180.416 69.9673V61.7339Z" fill="#A5AAAD"/>
<rect x="61.9756" y="188.851" width="2.16551" height="11.7344" rx="1.08275" transform="rotate(90 61.9756 188.851)" fill="#D9D9D9"/>
<rect x="55.0256" y="184.066" width="2.16551" height="11.7344" rx="1.08275" fill="#D9D9D9"/>
<path d="M128.316 46.6899L91.0403 57.127L63.9211 63.8742L49.4677 68.4723C46.9189 69.2831 45.4596 71.9562 46.1559 74.5386L70.784 165.881C71.236 167.557 72.5249 168.879 74.1891 169.372L120.776 183.198C122.572 183.731 124.516 183.215 125.811 181.862L159.104 147.069C160.326 145.792 160.783 143.964 160.306 142.262L134.479 50.1548C133.733 47.4966 130.975 45.9456 128.316 46.6899Z" fill="white"/>
<path d="M92.2442 75.7804C92.4093 72.8789 96.1908 71.8838 97.7627 74.3282L106.593 88.0594C107.764 89.8813 109.976 90.7417 112.071 90.1904L127.858 86.0359C130.669 85.2963 132.784 88.5852 130.945 90.8355L120.614 103.476C119.243 105.154 119.109 107.523 120.28 109.345L129.11 123.076C130.682 125.52 128.208 128.548 125.499 127.494L110.285 121.576C108.266 120.79 105.971 121.394 104.6 123.072L94.2697 135.713C92.4307 137.963 88.7865 136.545 88.9516 133.644L89.879 117.345C90.0021 115.182 88.7186 113.186 86.6999 112.401L71.4853 106.482C68.7769 105.429 68.999 101.525 71.8095 100.785L87.5973 96.6305C89.6921 96.0793 91.1937 94.2419 91.3168 92.0792L92.2442 75.7804Z" fill="white" stroke="#878C8F" stroke-width="2"/>
<circle cx="115.466" cy="158.45" r="8.66626" fill="white" stroke="#A5AAAD" stroke-width="2"/>
<path d="M33.6744 128.452C34.8682 121.212 45.6292 116.782 48.7853 125.978C48.2806 135.004 42.91 144.063 42.9549 145.319C37.1619 143.6 25.3967 139.87 24.6791 138.704C21.3716 135.565 21.2035 125.081 31.2943 126.146C32.1116 126.525 33.5106 127.432 33.6744 128.452Z" fill="white"/>
<path d="M33.5927 129.118C34.2094 121.493 45.5337 116.503 48.7853 125.978C48.2806 135.004 42.91 144.063 42.9549 145.319C37.1619 143.6 25.3967 139.87 24.6791 138.704C21.3716 135.565 21.2035 125.081 31.2943 126.146" stroke="#A5AAAD" stroke-width="2"/>
<path d="M91.0403 57.127L128.316 46.6899C130.975 45.9456 133.733 47.4966 134.479 50.1548L160.306 142.262C160.783 143.964 160.326 145.792 159.104 147.069L125.811 181.862C124.516 183.215 122.572 183.731 120.776 183.198L74.1891 169.372C72.5249 168.879 71.236 167.557 70.784 165.881L46.1559 74.5386C45.4596 71.9562 46.9189 69.2831 49.4677 68.4723L63.9211 63.8742M71.0947 62.1255L83.7453 58.4047" stroke="#195B3E" stroke-width="2"/>
</svg>
