<svg width="37" height="37" viewBox="0 0 37 37" fill="none" xmlns="http://www.w3.org/2000/svg">
<path d="M16.5472 24.49C16.4205 24.49 16.2938 24.4433 16.1938 24.3433C16.0005 24.15 16.0005 23.83 16.1938 23.6366L20.5405 19.29C20.8605 18.97 20.8605 18.45 20.5405 18.13L16.1938 13.7833C16.0005 13.59 16.0005 13.27 16.1938 13.0766C16.3872 12.8833 16.7072 12.8833 16.9005 13.0766L21.2472 17.4233C21.5872 17.7633 21.7805 18.2233 21.7805 18.71C21.7805 19.1966 21.5938 19.6566 21.2472 19.9966L16.9005 24.3433C16.8005 24.4366 16.6738 24.49 16.5472 24.49Z" fill="#9E7B3F"/>
<rect x="1.10718" y="1.20996" width="35" height="35" rx="17.5" stroke="#9E7B3F"/>
</svg>
