<svg width="24" height="20" viewBox="0 0 24 20" fill="none" xmlns="http://www.w3.org/2000/svg">
<g clip-path="url(#clip0_7783_25226)">
<path d="M19.3702 4.89012L13.5102 2.28012C12.6502 1.90012 11.3502 1.90012 10.4902 2.28012L4.63018 4.89012C3.15018 5.55012 2.93018 6.45012 2.93018 6.93012C2.93018 7.41012 3.15018 8.31012 4.63018 8.97012L10.4902 11.5801C10.9202 11.7701 11.4602 11.8701 12.0002 11.8701C12.5402 11.8701 13.0802 11.7701 13.5102 11.5801L19.3702 8.97012C20.8502 8.31012 21.0702 7.41012 21.0702 6.93012C21.0702 6.45012 20.8602 5.55012 19.3702 4.89012Z" fill="#292D32"/>
<path d="M11.9998 17.04C11.6198 17.04 11.2398 16.96 10.8898 16.81L4.14982 13.81C3.11982 13.35 2.31982 12.12 2.31982 10.99C2.31982 10.58 2.64982 10.25 3.05982 10.25C3.46982 10.25 3.79982 10.58 3.79982 10.99C3.79982 11.53 4.24982 12.23 4.74982 12.45L11.4898 15.45C11.8098 15.59 12.1798 15.59 12.4998 15.45L19.2398 12.45C19.7398 12.23 20.1898 11.54 20.1898 10.99C20.1898 10.58 20.5198 10.25 20.9298 10.25C21.3398 10.25 21.6698 10.58 21.6698 10.99C21.6698 12.11 20.8698 13.35 19.8398 13.81L13.0998 16.81C12.7598 16.96 12.3798 17.04 11.9998 17.04Z" fill="#292D32"/>
</g>
<defs>
<clipPath id="clip0_7783_25226">
<rect width="24" height="20" fill="white"/>
</clipPath>
</defs>
</svg>
