<svg width="24" height="24" viewBox="0 0 24 24" fill="none" xmlns="http://www.w3.org/2000/svg">
<g clip-path="url(#clip0_7783_25233)">
<path d="M19.3702 4.89012L13.5102 2.28012C12.6502 1.90012 11.3502 1.90012 10.4902 2.28012L4.63018 4.89012C3.15018 5.55012 2.93018 6.45012 2.93018 6.93012C2.93018 7.41012 3.15018 8.31012 4.63018 8.97012L10.4902 11.5801C10.9202 11.7701 11.4602 11.8701 12.0002 11.8701C12.5402 11.8701 13.0802 11.7701 13.5102 11.5801L19.3702 8.97012C20.8502 8.31012 21.0702 7.41012 21.0702 6.93012C21.0702 6.45012 20.8602 5.55012 19.3702 4.89012Z" fill="#292D32"/>
<path d="M11.9998 16.04C11.6198 16.04 11.2398 15.96 10.8898 15.81L4.14982 12.81C3.11982 12.35 2.31982 11.12 2.31982 9.99C2.31982 9.58 2.64982 9.25 3.05982 9.25C3.46982 9.25 3.79982 9.58 3.79982 9.99C3.79982 10.53 4.24982 11.23 4.74982 11.45L11.4898 14.45C11.8098 14.59 12.1798 14.59 12.4998 14.45L19.2398 11.45C19.7398 11.23 20.1898 10.54 20.1898 9.99C20.1898 9.58 20.5198 9.25 20.9298 9.25C21.3398 9.25 21.6698 9.58 21.6698 9.99C21.6698 11.11 20.8698 12.35 19.8398 12.81L13.0998 15.81C12.7598 15.96 12.3798 16.04 11.9998 16.04Z" fill="#292D32"/>
<path d="M12.0003 21C11.6203 21 11.2403 20.92 10.8903 20.77L4.15031 17.77C3.04031 17.28 2.32031 16.17 2.32031 14.95C2.32031 14.54 2.65031 14.21 3.06031 14.21C3.47031 14.21 3.80031 14.54 3.80031 14.95C3.80031 15.58 4.17031 16.15 4.75031 16.41L11.4903 19.41C11.8103 19.55 12.1803 19.55 12.5003 19.41L19.2403 16.41C19.8103 16.16 20.1903 15.58 20.1903 14.95C20.1903 14.54 20.5203 14.21 20.9303 14.21C21.3403 14.21 21.6703 14.54 21.6703 14.95C21.6703 16.17 20.9503 17.27 19.8403 17.77L13.1003 20.77C12.7603 20.92 12.3803 21 12.0003 21Z" fill="#292D32"/>
</g>
<defs>
<clipPath id="clip0_7783_25233">
<rect width="24" height="24" fill="white"/>
</clipPath>
</defs>
</svg>
