<svg width="16" height="17" viewBox="0 0 16 17" fill="none" xmlns="http://www.w3.org/2000/svg">
<path d="M12.3607 4.09176C12.2712 4.00219 12.1486 3.94562 12.0072 3.94562L6.28434 3.94562C6.01093 3.94562 5.78465 4.1719 5.78465 4.44531C5.78465 4.71873 6.01092 4.945 6.28434 4.945L11.5075 4.945L11.5075 10.1682C11.5075 10.4416 11.7338 10.6679 12.0072 10.6679C12.2806 10.6679 12.5069 10.4416 12.5069 10.1682L12.5069 4.44531C12.5069 4.30389 12.4503 4.18133 12.3607 4.09176Z" fill="#38CB89"/>
<path d="M12.2805 4.17169C12.0873 3.97842 11.7667 3.97842 11.5734 4.17169L3.63969 12.1054C3.44641 12.2987 3.44641 12.6193 3.63969 12.8125C3.83296 13.0058 4.15352 13.0058 4.34679 12.8125L12.2805 4.8788C12.4738 4.68552 12.4738 4.36497 12.2805 4.17169Z" fill="#38CB89"/>
</svg>
