<svg width="514" height="217" viewBox="0 0 514 217" fill="none" xmlns="http://www.w3.org/2000/svg">
<g clip-path="url(#clip0_6714_13690)">
<mask id="mask0_6714_13690" style="mask-type:alpha" maskUnits="userSpaceOnUse" x="0" y="0" width="514" height="190">
<rect y="0.363281" width="514" height="189" rx="8" fill="white"/>
</mask>
<g mask="url(#mask0_6714_13690)">
<path d="M13.6213 99.3633C9.71507 101.619 6.26779 103.227 3.4951 104.332C-0.154705 105.787 -3.00293 109.253 -3.00293 113.182V182.393C-3.00293 186.811 0.578773 190.393 4.99705 190.393H572.603C576.981 190.393 580.546 186.874 580.603 182.496L582.699 20.6284C582.797 13.017 572.557 9.0604 566.643 13.8532C558.02 20.8416 548.251 26.0717 540.747 23.3633C524.123 17.3633 505.421 18.3633 492.952 23.3633C480.484 28.3633 472.865 35.3633 459.011 36.3633C445.158 37.3633 449.314 32.3633 427.841 29.3633C406.368 26.3633 397.363 55.3633 386.973 63.3633C376.583 71.3633 350.261 69.3633 340.564 63.3633C330.866 57.3633 322.554 55.3633 314.935 55.3633C307.316 55.3633 307.315 62.3633 296.233 63.3633C285.15 64.3633 274.067 54.3633 258.828 55.3633C243.589 56.3633 222.809 75.3633 206.878 76.3633C190.946 77.3633 200.644 71.3633 177.785 69.3633C154.927 67.3633 136.917 93.3633 122.371 99.3633C107.825 105.363 86.3521 92.3633 74.5767 88.3633C62.8012 84.3633 51.7184 99.3633 42.7136 99.3633C33.7088 99.3633 24.0114 93.3633 13.6213 99.3633Z" fill="url(#paint0_linear_6714_13690)" fill-opacity="0.2" stroke="#3851DD" stroke-width="2"/>
<path d="M13.6213 120.363C9.71507 122.619 6.26779 124.227 3.4951 125.332C-0.154706 126.787 -3.00293 130.253 -3.00293 134.182V191.363C-3.00293 195.782 0.578783 199.363 4.99706 199.363H575C579.418 199.363 583 195.782 583 191.363V41.1494C583 33.5894 572.863 29.7579 567.016 34.5494C558.302 41.689 548.36 47.1108 540.747 44.3633C524.123 38.3633 505.421 39.3633 492.952 44.3633C480.484 49.3633 472.865 56.3633 459.011 57.3633C445.158 58.3633 449.314 53.3633 427.841 50.3633C406.368 47.3633 397.363 76.3633 386.973 84.3633C376.583 92.3633 350.261 90.3633 340.564 84.3633C330.866 78.3633 322.554 76.3633 314.935 76.3633C307.316 76.3633 307.315 83.3633 296.233 84.3633C285.15 85.3633 274.067 75.3633 258.828 76.3633C243.589 77.3633 222.809 96.3633 206.878 97.3633C190.946 98.3633 200.644 92.3633 177.785 90.3633C154.927 88.3633 136.917 114.363 122.371 120.363C107.825 126.363 86.3521 113.363 74.5767 109.363C62.8012 105.363 51.7184 120.363 42.7136 120.363C33.7088 120.363 24.0114 114.363 13.6213 120.363Z" fill="url(#paint1_linear_6714_13690)" fill-opacity="0.2" stroke="#195B3E" stroke-width="2"/>
<path d="M13.6213 143.363C9.71507 145.619 6.26779 147.227 3.4951 148.332C-0.154705 149.787 -3.00293 153.253 -3.00293 157.182V183.363C-3.00293 187.782 0.578783 191.363 4.99706 191.363H575C579.418 191.363 583 187.782 583 183.363V64.1494C583 56.5894 572.863 52.7579 567.016 57.5494C558.302 64.689 548.36 70.1108 540.747 67.3633C524.123 61.3633 505.421 62.3633 492.952 67.3633C480.484 72.3633 472.865 79.3633 459.011 80.3633C445.158 81.3633 449.314 76.3633 427.841 73.3633C406.368 70.3633 397.363 99.3633 386.973 107.363C376.583 115.363 350.261 113.363 340.564 107.363C330.866 101.363 322.554 99.3633 314.935 99.3633C307.315 99.3633 307.315 106.363 296.233 107.363C285.15 108.363 274.067 98.3633 258.828 99.3633C243.589 100.363 222.809 119.363 206.878 120.363C190.946 121.363 200.644 115.363 177.785 113.363C154.927 111.363 136.917 137.363 122.371 143.363C107.825 149.363 86.3521 136.363 74.5767 132.363C62.8012 128.363 51.7184 143.363 42.7136 143.363C33.7088 143.363 24.0114 137.363 13.6213 143.363Z" fill="url(#paint2_linear_6714_13690)" fill-opacity="0.4" stroke="#AB3FD9" stroke-width="2"/>
<path d="M19.1577 163.863H5.16179C0.743516 163.863 -2.83691 167.445 -2.83691 171.863V183.363C-2.83691 187.782 0.744802 191.363 5.16308 191.363H573.051C577.469 191.363 581.051 187.782 581.051 183.363V104.094C581.051 102.53 578.858 102.314 578.645 103.863C578.301 106.363 572.115 112.863 569.022 109.863C565.929 106.863 559.4 106.363 555.963 107.863C552.526 109.363 553.214 106.363 546.684 103.863C540.154 101.363 538.092 109.363 534.656 110.863C531.219 112.363 526.064 109.363 523.658 106.363L523.555 106.235C521.164 103.25 518.038 99.3491 509.568 98.3633C500.977 97.3633 499.258 112.863 495.822 118.363C492.385 123.863 484.481 120.863 482.419 119.863C480.357 118.863 478.638 115.363 472.109 118.363C465.579 121.363 459.393 131.863 451.489 132.363C443.584 132.863 436.711 124.863 431.212 124.863C425.714 124.863 427.432 126.363 419.872 128.863C412.311 131.363 399.252 124.863 394.784 122.363C390.316 119.863 384.474 122.363 381.381 124.863C378.288 127.363 367.291 127.863 364.198 126.363C361.105 124.863 352.169 121.363 350.107 124.863C348.045 128.363 338.766 122.363 336.017 122.363C333.268 122.363 334.642 118.863 327.426 116.863C320.209 114.863 315.397 124.863 313.335 126.363C311.273 127.863 307.493 125.363 304.056 122.363C300.62 119.363 286.529 116.363 278.281 118.863C270.033 121.363 269.346 128.863 263.847 129.863C258.349 130.863 255.943 137.863 253.194 137.863C250.444 137.863 248.726 137.863 246.32 135.863C243.915 133.863 238.073 135.863 235.667 137.863C233.261 139.863 229.137 140.863 224.326 141.363C219.515 141.863 216.765 137.363 212.985 135.863C209.205 134.363 204.05 133.363 194.427 133.863C184.804 134.363 185.148 143.363 175.182 146.863C165.215 150.363 157.998 145.863 151.125 144.363C144.252 142.863 138.41 149.863 135.317 152.363C132.224 154.863 125.35 152.363 118.477 149.863C111.604 147.363 108.854 152.363 107.823 152.363C106.792 152.363 101.981 158.863 96.4824 152.363C90.9837 145.863 88.5781 147.863 86.5161 147.863C84.4541 147.863 83.0794 151.363 79.9864 149.863C76.8935 148.363 76.8935 143.863 71.7385 144.363C66.5835 144.863 62.8032 155.363 61.0849 156.863C59.3665 158.363 55.5862 160.363 52.8369 160.863C50.0876 161.363 50.0876 158.863 41.8396 157.863C33.5916 156.863 28.7803 163.863 19.1577 163.863Z" fill="url(#paint3_linear_6714_13690)" fill-opacity="0.5" stroke="#FF6A00" stroke-width="2"/>
</g>
</g>
<path d="M44.0529 212.973V206.173H48.6629V206.923H44.9729V209.253H48.2929V210.003H44.9729V212.973H44.0529ZM54.1098 211.243C53.8198 212.483 52.9298 213.093 51.7198 213.093C50.1798 213.093 49.2498 212.053 49.2498 210.323C49.2498 208.523 50.1798 207.533 51.6698 207.533C53.1698 207.533 54.0698 208.563 54.0698 210.253V210.473H50.1498C50.1998 211.663 50.7598 212.333 51.7198 212.333C52.4698 212.333 52.9998 211.973 53.1898 211.243H54.1098ZM51.6698 208.293C50.8198 208.293 50.3098 208.823 50.1798 209.813H53.1498C53.0298 208.833 52.4998 208.293 51.6698 208.293ZM56.1225 212.973H55.2425V205.773H56.1225V208.323C56.4725 207.823 56.9825 207.533 57.6125 207.533C59.0225 207.533 59.8725 208.573 59.8725 210.303C59.8725 212.103 59.0025 213.093 57.6125 213.093C56.9825 213.093 56.4725 212.833 56.1225 212.343V212.973ZM57.5525 208.293C56.6225 208.293 56.1225 209.003 56.1225 210.303C56.1225 211.593 56.6425 212.333 57.5525 212.333C58.4725 212.333 58.9725 211.613 58.9725 210.303C58.9725 209.023 58.4525 208.293 57.5525 208.293Z" fill="#52525B"/>
<path d="M90.7776 212.973V206.173H92.0476L94.1376 211.163L94.3376 211.773L94.5476 211.163L96.6276 206.173H97.8576V212.973H96.9376V207.283L96.4576 208.623L94.6376 212.973H93.9876L92.1676 208.613L91.6976 207.313V212.973H90.7776ZM100.15 209.393H99.2701C99.4401 208.223 100.21 207.533 101.51 207.533C102.93 207.533 103.62 208.363 103.62 209.603V211.693C103.62 212.303 103.67 212.683 103.81 212.973H102.88C102.78 212.763 102.75 212.453 102.74 212.133C102.29 212.803 101.57 213.093 100.93 213.093C99.8301 213.093 99.0901 212.583 99.0901 211.573C99.0901 210.843 99.4901 210.313 100.27 210.053C100.99 209.813 101.72 209.753 102.74 209.743V209.623C102.74 208.763 102.34 208.293 101.43 208.293C100.67 208.293 100.26 208.713 100.15 209.393ZM99.9901 211.553C99.9901 212.043 100.4 212.333 101.02 212.333C102 212.333 102.74 211.563 102.74 210.653V210.403C100.48 210.423 99.9901 210.903 99.9901 211.553ZM105.063 212.973V207.663H105.943V208.483C106.303 207.833 106.873 207.533 107.513 207.533C107.723 207.533 107.913 207.583 108.013 207.663V208.453C107.863 208.403 107.673 208.383 107.463 208.383C106.403 208.383 105.943 209.043 105.943 210.003V212.973H105.063Z" fill="#52525B"/>
<path d="M140.814 212.973L140.174 211.343H136.914L136.274 212.973H135.364L138.034 206.173H139.094L141.774 212.973H140.814ZM138.344 207.663L137.194 210.603H139.894L138.744 207.663L138.544 207.063L138.344 207.663ZM143.561 215.173H142.681V207.663H143.561V208.323C143.911 207.823 144.421 207.533 145.051 207.533C146.461 207.533 147.311 208.573 147.311 210.303C147.311 212.103 146.441 213.093 145.051 213.093C144.421 213.093 143.911 212.833 143.561 212.343V215.173ZM144.991 208.293C144.061 208.293 143.561 209.003 143.561 210.303C143.561 211.593 144.081 212.333 144.991 212.333C145.911 212.333 146.411 211.613 146.411 210.303C146.411 209.023 145.891 208.293 144.991 208.293ZM148.442 212.973V207.663H149.322V208.483C149.682 207.833 150.252 207.533 150.892 207.533C151.102 207.533 151.292 207.583 151.392 207.663V208.453C151.242 208.403 151.052 208.383 150.842 208.383C149.782 208.383 149.322 209.043 149.322 210.003V212.973H148.442Z" fill="#52525B"/>
<path d="M180.101 212.973V206.173H181.371L183.461 211.163L183.661 211.773L183.871 211.163L185.951 206.173H187.181V212.973H186.261V207.283L185.781 208.623L183.961 212.973H183.311L181.491 208.613L181.021 207.313V212.973H180.101ZM189.473 209.393H188.593C188.763 208.223 189.533 207.533 190.833 207.533C192.253 207.533 192.943 208.363 192.943 209.603V211.693C192.943 212.303 192.993 212.683 193.133 212.973H192.203C192.103 212.763 192.073 212.453 192.063 212.133C191.613 212.803 190.893 213.093 190.253 213.093C189.153 213.093 188.413 212.583 188.413 211.573C188.413 210.843 188.813 210.313 189.593 210.053C190.313 209.813 191.043 209.753 192.063 209.743V209.623C192.063 208.763 191.663 208.293 190.753 208.293C189.993 208.293 189.583 208.713 189.473 209.393ZM189.313 211.553C189.313 212.043 189.723 212.333 190.343 212.333C191.323 212.333 192.063 211.563 192.063 210.653V210.403C189.803 210.423 189.313 210.903 189.313 211.553ZM194.528 215.293C194.328 215.293 194.118 215.243 194.008 215.213V214.533H194.278C194.928 214.533 195.108 214.403 195.628 213.213L195.808 212.803L193.638 207.663H194.588L196.028 211.173L196.268 211.883L196.508 211.173L197.908 207.663H198.808L196.328 213.673C195.798 214.953 195.448 215.293 194.528 215.293Z" fill="#52525B"/>
<path d="M226.834 210.923H227.754C227.834 211.783 228.214 212.303 228.974 212.303C229.744 212.303 230.194 211.723 230.194 210.753V206.173H231.114V210.653C231.114 212.163 230.294 213.093 228.974 213.093C227.704 213.093 226.914 212.243 226.834 210.923ZM235.897 210.803V207.663H236.777V212.973H235.897V212.253C235.537 212.813 234.977 213.093 234.287 213.093C233.177 213.093 232.517 212.443 232.517 211.213V207.663H233.397V211.033C233.397 211.833 233.747 212.343 234.527 212.343C235.387 212.343 235.897 211.563 235.897 210.803ZM238.181 212.973V207.663H239.061V208.383C239.421 207.823 240.001 207.533 240.701 207.533C241.831 207.533 242.501 208.193 242.501 209.423V212.973H241.621V209.603C241.621 208.803 241.261 208.283 240.461 208.283C239.581 208.283 239.061 209.073 239.061 209.833V212.973H238.181Z" fill="#52525B"/>
<path d="M269.331 210.923H270.251C270.331 211.783 270.711 212.303 271.471 212.303C272.241 212.303 272.691 211.723 272.691 210.753V206.173H273.611V210.653C273.611 212.163 272.791 213.093 271.471 213.093C270.201 213.093 269.411 212.243 269.331 210.923ZM278.393 210.803V207.663H279.273V212.973H278.393V212.253C278.033 212.813 277.473 213.093 276.783 213.093C275.673 213.093 275.013 212.443 275.013 211.213V207.663H275.893V211.033C275.893 211.833 276.243 212.343 277.023 212.343C277.883 212.343 278.393 211.563 278.393 210.803ZM280.678 212.973V205.773H281.558V212.973H280.678Z" fill="#52525B"/>
<path d="M315.011 212.973L314.371 211.343H311.111L310.471 212.973H309.561L312.231 206.173H313.291L315.971 212.973H315.011ZM312.541 207.663L311.391 210.603H314.091L312.941 207.663L312.741 207.063L312.541 207.663ZM320.101 210.803V207.663H320.981V212.973H320.101V212.253C319.741 212.813 319.181 213.093 318.491 213.093C317.381 213.093 316.721 212.443 316.721 211.213V207.663H317.601V211.033C317.601 211.833 317.951 212.343 318.731 212.343C319.591 212.343 320.101 211.563 320.101 210.803ZM324.276 213.013C322.926 213.013 322.116 211.983 322.116 210.283C322.116 208.503 322.946 207.533 324.276 207.533C324.986 207.533 325.516 207.783 325.866 208.243V207.663H326.746V213.133C326.746 214.613 325.796 215.303 324.576 215.303C323.326 215.303 322.446 214.703 322.256 213.493H323.136C323.246 214.193 323.796 214.573 324.566 214.573C325.346 214.573 325.866 214.153 325.866 213.163V212.253C325.496 212.753 324.956 213.013 324.276 213.013ZM324.436 212.253C325.366 212.253 325.866 211.553 325.866 210.273C325.866 209.023 325.346 208.293 324.436 208.293C323.516 208.293 323.016 208.993 323.016 210.283C323.016 211.533 323.526 212.253 324.436 212.253Z" fill="#52525B"/>
<path d="M356.902 207.833C356.902 209.753 361.072 208.263 361.072 211.053C361.072 212.363 360.012 213.093 358.562 213.093C357.102 213.093 356.102 212.423 355.802 211.053H356.762C356.982 211.863 357.592 212.303 358.572 212.303C359.592 212.303 360.132 211.853 360.132 211.173C360.132 209.093 355.962 210.643 355.962 207.893C355.962 206.913 356.782 206.053 358.282 206.053C359.592 206.053 360.642 206.683 360.892 208.133H359.922C359.712 207.233 359.132 206.843 358.262 206.843C357.402 206.843 356.902 207.233 356.902 207.833ZM366.738 211.243C366.448 212.483 365.558 213.093 364.348 213.093C362.808 213.093 361.878 212.053 361.878 210.323C361.878 208.523 362.808 207.533 364.298 207.533C365.798 207.533 366.698 208.563 366.698 210.253V210.473H362.778C362.828 211.663 363.388 212.333 364.348 212.333C365.098 212.333 365.628 211.973 365.818 211.243H366.738ZM364.298 208.293C363.448 208.293 362.938 208.823 362.808 209.813H365.778C365.658 208.833 365.128 208.293 364.298 208.293ZM368.76 215.173H367.88V207.663H368.76V208.323C369.11 207.823 369.62 207.533 370.25 207.533C371.66 207.533 372.51 208.573 372.51 210.303C372.51 212.103 371.64 213.093 370.25 213.093C369.62 213.093 369.11 212.833 368.76 212.343V215.173ZM370.19 208.293C369.26 208.293 368.76 209.003 368.76 210.303C368.76 211.593 369.28 212.333 370.19 212.333C371.11 212.333 371.61 211.613 371.61 210.303C371.61 209.023 371.09 208.293 370.19 208.293Z" fill="#52525B"/>
<path d="M406.692 213.093C404.702 213.093 403.482 211.753 403.482 209.583C403.482 207.413 404.702 206.053 406.692 206.053C408.672 206.053 409.902 207.413 409.902 209.583C409.902 211.753 408.672 213.093 406.692 213.093ZM406.692 212.303C408.112 212.303 408.962 211.273 408.962 209.583C408.962 207.883 408.112 206.843 406.692 206.843C405.272 206.843 404.422 207.883 404.422 209.583C404.422 211.273 405.272 212.303 406.692 212.303ZM415.522 209.493H414.642C414.502 208.683 413.962 208.293 413.262 208.293C412.282 208.293 411.762 209.013 411.762 210.323C411.762 211.613 412.312 212.343 413.292 212.343C414.002 212.343 414.512 211.963 414.682 211.203H415.562C415.322 212.523 414.432 213.093 413.272 213.093C411.762 213.093 410.862 212.043 410.862 210.323C410.862 208.523 411.782 207.533 413.262 207.533C414.432 207.533 415.352 208.193 415.522 209.493ZM416.77 211.443V208.363H416.03V207.663H416.77V206.443H417.65V207.663H418.82V208.363H417.65V211.443C417.65 212.083 417.84 212.383 418.62 212.383H418.8V213.013C418.7 213.063 418.48 213.093 418.23 213.093C417.24 213.093 416.77 212.563 416.77 211.443Z" fill="#52525B"/>
<path d="M448.645 212.973V206.173H449.605L452.735 210.973L453.125 211.643V206.173H454.045V212.973H453.085L449.965 208.203L449.565 207.503V212.973H448.645ZM457.688 213.093C456.168 213.093 455.258 212.053 455.258 210.323C455.258 208.523 456.198 207.533 457.688 207.533C459.208 207.533 460.118 208.593 460.118 210.323C460.118 212.113 459.178 213.093 457.688 213.093ZM457.688 212.333C458.678 212.333 459.218 211.623 459.218 210.323C459.218 209.033 458.668 208.293 457.688 208.293C456.698 208.293 456.158 209.013 456.158 210.323C456.158 211.603 456.708 212.333 457.688 212.333ZM462.483 212.973L460.503 207.663H461.453L462.923 211.783L463.053 212.243L463.183 211.783L464.653 207.663H465.543L463.563 212.973H462.483Z" fill="#52525B"/>
<path d="M496.174 212.973V206.173H498.394C500.504 206.173 501.824 207.453 501.824 209.583C501.824 211.713 500.504 212.973 498.394 212.973H496.174ZM498.394 212.223C499.954 212.223 500.884 211.243 500.884 209.583C500.884 207.903 499.954 206.923 498.394 206.923H497.094V212.223H498.394ZM507.656 211.243C507.366 212.483 506.476 213.093 505.266 213.093C503.726 213.093 502.796 212.053 502.796 210.323C502.796 208.523 503.726 207.533 505.216 207.533C506.716 207.533 507.616 208.563 507.616 210.253V210.473H503.696C503.746 211.663 504.306 212.333 505.266 212.333C506.016 212.333 506.546 211.973 506.736 211.243H507.656ZM505.216 208.293C504.366 208.293 503.856 208.823 503.726 209.813H506.696C506.576 208.833 506.046 208.293 505.216 208.293ZM513.179 209.493H512.299C512.159 208.683 511.619 208.293 510.919 208.293C509.939 208.293 509.419 209.013 509.419 210.323C509.419 211.613 509.969 212.343 510.949 212.343C511.659 212.343 512.169 211.963 512.339 211.203H513.219C512.979 212.523 512.089 213.093 510.929 213.093C509.419 213.093 508.519 212.043 508.519 210.323C508.519 208.523 509.439 207.533 510.919 207.533C512.089 207.533 513.009 208.193 513.179 209.493Z" fill="#52525B"/>
<path d="M0.440859 210.923H1.36086C1.44086 211.783 1.82086 212.303 2.58086 212.303C3.35086 212.303 3.80086 211.723 3.80086 210.753V206.173H4.72086V210.653C4.72086 212.163 3.90086 213.093 2.58086 213.093C1.31086 213.093 0.520859 212.243 0.440859 210.923ZM6.93383 209.393H6.05383C6.22383 208.223 6.99383 207.533 8.29383 207.533C9.71383 207.533 10.4038 208.363 10.4038 209.603V211.693C10.4038 212.303 10.4538 212.683 10.5938 212.973H9.66383C9.56383 212.763 9.53383 212.453 9.52383 212.133C9.07383 212.803 8.35383 213.093 7.71383 213.093C6.61383 213.093 5.87383 212.583 5.87383 211.573C5.87383 210.843 6.27383 210.313 7.05383 210.053C7.77383 209.813 8.50383 209.753 9.52383 209.743V209.623C9.52383 208.763 9.12383 208.293 8.21383 208.293C7.45383 208.293 7.04383 208.713 6.93383 209.393ZM6.77383 211.553C6.77383 212.043 7.18383 212.333 7.80383 212.333C8.78383 212.333 9.52383 211.563 9.52383 210.653V210.403C7.26383 210.423 6.77383 210.903 6.77383 211.553ZM11.8465 212.973V207.663H12.7265V208.383C13.0865 207.823 13.6665 207.533 14.3665 207.533C15.4965 207.533 16.1665 208.193 16.1665 209.423V212.973H15.2865V209.603C15.2865 208.803 14.9265 208.283 14.1265 208.283C13.2465 208.283 12.7265 209.073 12.7265 209.833V212.973H11.8465Z" fill="#52525B"/>
<defs>
<linearGradient id="paint0_linear_6714_13690" x1="254.426" y1="15.7175" x2="309.331" y2="294.446" gradientUnits="userSpaceOnUse">
<stop stop-color="#3851DD"/>
<stop offset="0.444208" stop-color="#3851DD" stop-opacity="0"/>
</linearGradient>
<linearGradient id="paint1_linear_6714_13690" x1="254.426" y1="36.7175" x2="309.331" y2="315.446" gradientUnits="userSpaceOnUse">
<stop stop-color="#5EA09F"/>
<stop offset="0.444208" stop-color="#5EA09F" stop-opacity="0"/>
</linearGradient>
<linearGradient id="paint2_linear_6714_13690" x1="254.426" y1="59.7175" x2="270.744" y2="162.468" gradientUnits="userSpaceOnUse">
<stop stop-color="#AB3FD9"/>
<stop offset="1" stop-color="#AB3FD9" stop-opacity="0"/>
</linearGradient>
<linearGradient id="paint3_linear_6714_13690" x1="253.663" y1="103.599" x2="283.269" y2="307.144" gradientUnits="userSpaceOnUse">
<stop stop-color="#FF6A00"/>
<stop offset="0.675856" stop-opacity="0"/>
</linearGradient>
<clipPath id="clip0_6714_13690">
<rect width="514" height="189" fill="white" transform="translate(0 0.392578)"/>
</clipPath>
</defs>
</svg>
