<svg width="16" height="17" viewBox="0 0 16 17" fill="none" xmlns="http://www.w3.org/2000/svg">
<path d="M12.3607 13.1646C12.2712 13.2542 12.1486 13.3107 12.0072 13.3107L6.28434 13.3107C6.01093 13.3107 5.78465 13.0844 5.78465 12.811C5.78465 12.5376 6.01092 12.3113 6.28434 12.3113L11.5075 12.3113L11.5075 7.08818C11.5075 6.81477 11.7338 6.5885 12.0072 6.5885C12.2806 6.5885 12.5069 6.81477 12.5069 7.08818L12.5069 12.811C12.5069 12.9525 12.4503 13.075 12.3607 13.1646Z" fill="#E1261C"/>
<path d="M12.2805 13.0847C12.0873 13.2779 11.7667 13.2779 11.5734 13.0847L3.63969 5.15092C3.44641 4.95764 3.44641 4.63709 3.63969 4.44381C3.83296 4.25053 4.15352 4.25053 4.34679 4.44381L12.2805 12.3775C12.4738 12.5708 12.4738 12.8914 12.2805 13.0847Z" fill="#E1261C"/>
</svg>
