<svg width="16" height="17" viewBox="0 0 16 17" fill="none" xmlns="http://www.w3.org/2000/svg">
<path d="M8.28336 4.79662C10.7206 4.79662 12.8941 6.16633 13.9551 8.33344C12.8941 10.5005 10.727 11.8703 8.28336 11.8703C5.83974 11.8703 3.67263 10.5005 2.61159 8.33344C3.67263 6.16633 5.84617 4.79662 8.28336 4.79662ZM8.28336 3.5105C5.06807 3.5105 2.32221 5.51041 1.20972 8.33344C2.32221 11.1565 5.06807 13.1564 8.28336 13.1564C11.4987 13.1564 14.2445 11.1565 15.357 8.33344C14.2445 5.51041 11.4987 3.5105 8.28336 3.5105ZM8.28336 6.72579C9.17078 6.72579 9.89101 7.44602 9.89101 8.33344C9.89101 9.22086 9.17078 9.94109 8.28336 9.94109C7.39594 9.94109 6.67572 9.22086 6.67572 8.33344C6.67572 7.44602 7.39594 6.72579 8.28336 6.72579ZM8.28336 5.43967C6.68858 5.43967 5.3896 6.73865 5.3896 8.33344C5.3896 9.92823 6.68858 11.2272 8.28336 11.2272C9.87815 11.2272 11.1771 9.92823 11.1771 8.33344C11.1771 6.73865 9.87815 5.43967 8.28336 5.43967Z" fill="#C1C2C6"/>
</svg>
