<svg xmlns="http://www.w3.org/2000/svg" width="16" height="17" viewBox="0 0 16 17" fill="none">
  <path d="M12.3605 4.13924C12.2709 4.04968 12.1484 3.99311 12.0069 3.99311L6.2841 3.99311C6.01068 3.99311 5.78441 4.21938 5.78441 4.4928C5.78441 4.76621 6.01068 4.99249 6.2841 4.99249L11.5073 4.99249L11.5073 10.2156C11.5073 10.4891 11.7335 10.7153 12.0069 10.7153C12.2804 10.7153 12.5066 10.4891 12.5066 10.2156L12.5066 4.4928C12.5066 4.35138 12.4501 4.22881 12.3605 4.13924Z" fill="white"/>
  <path d="M12.2803 4.21942C12.0871 4.02615 11.7665 4.02615 11.5732 4.21942L3.6395 12.1532C3.44623 12.3464 3.44623 12.667 3.6395 12.8603C3.83278 13.0535 4.15333 13.0535 4.34661 12.8603L12.2803 4.92653C12.4736 4.73325 12.4736 4.4127 12.2803 4.21942Z" fill="white"/>
</svg>