<svg width="37" height="37" viewBox="0 0 37 37" fill="none" xmlns="http://www.w3.org/2000/svg">
<path d="M16.5472 24.2024C16.4205 24.2024 16.2938 24.1557 16.1938 24.0557C16.0005 23.8624 16.0005 23.5424 16.1938 23.349L20.5405 19.0024C20.8605 18.6824 20.8605 18.1624 20.5405 17.8424L16.1938 13.4957C16.0005 13.3024 16.0005 12.9824 16.1938 12.789C16.3872 12.5957 16.7072 12.5957 16.9005 12.789L21.2472 17.1357C21.5872 17.4757 21.7805 17.9357 21.7805 18.4224C21.7805 18.909 21.5938 19.369 21.2472 19.709L16.9005 24.0557C16.8005 24.149 16.6738 24.2024 16.5472 24.2024Z" fill="#1C9AE1"/>
<rect x="1.10718" y="0.922363" width="35" height="35" rx="17.5" stroke="#1C9AE1"/>
</svg>
