<svg width="37" height="37" viewBox="0 0 37 37" fill="none" xmlns="http://www.w3.org/2000/svg">
<path d="M16.5472 23.9148C16.4205 23.9148 16.2938 23.8681 16.1938 23.7681C16.0005 23.5748 16.0005 23.2548 16.1938 23.0614L20.5405 18.7148C20.8605 18.3948 20.8605 17.8748 20.5405 17.5548L16.1938 13.2081C16.0005 13.0148 16.0005 12.6948 16.1938 12.5014C16.3872 12.3081 16.7072 12.3081 16.9005 12.5014L21.2472 16.8481C21.5872 17.1881 21.7805 17.6481 21.7805 18.1348C21.7805 18.6214 21.5938 19.0814 21.2472 19.4214L16.9005 23.7681C16.8005 23.8614 16.6738 23.9148 16.5472 23.9148Z" fill="#BD9B4F"/>
<rect x="1.10718" y="0.634766" width="35" height="35" rx="17.5" stroke="#BD9B4F"/>
</svg>
