<svg xmlns="http://www.w3.org/2000/svg" width="13" height="12" viewBox="0 0 13 12" fill="none">
  <path d="M6.09007 3.095L4.23507 1.24C4.20007 1.205 4.15507 1.175 4.10507 1.155C4.10007 1.155 4.09507 1.155 4.09007 1.15C4.05007 1.135 4.01007 1.125 3.96507 1.125C3.86507 1.125 3.77007 1.165 3.70007 1.235L1.83507 3.095C1.69007 3.24 1.69007 3.48 1.83507 3.625C1.98007 3.77 2.22007 3.77 2.36507 3.625L3.59007 2.4V10.5C3.59007 10.705 3.76007 10.875 3.96507 10.875C4.17007 10.875 4.34007 10.705 4.34007 10.5V2.405L5.56007 3.625C5.63507 3.7 5.73007 3.735 5.82507 3.735C5.92007 3.735 6.01507 3.7 6.09007 3.625C6.23507 3.48 6.23507 3.245 6.09007 3.095Z" fill="#C1C0C2"/>
  <path d="M11.3652 8.375C11.2202 8.23 10.9802 8.23 10.8352 8.375L9.61021 9.6V1.5C9.61021 1.295 9.44021 1.125 9.23521 1.125C9.03022 1.125 8.86021 1.295 8.86021 1.5V9.595L7.64021 8.375C7.49521 8.23 7.25521 8.23 7.11021 8.375C6.96521 8.52 6.96521 8.76 7.11021 8.905L8.96521 10.76C9.00021 10.795 9.04521 10.825 9.09521 10.845C9.10021 10.845 9.10521 10.845 9.11021 10.85C9.15021 10.865 9.19521 10.875 9.24022 10.875C9.34021 10.875 9.43521 10.835 9.50521 10.765L11.3652 8.905C11.5102 8.755 11.5102 8.52 11.3652 8.375Z" fill="#C1C0C2"/>
</svg>