<svg width="147" height="38" viewBox="0 0 147 38" fill="none" xmlns="http://www.w3.org/2000/svg">
<path d="M16.2687 11.331C16.5843 14.3471 13.7856 17.2376 13.7856 17.1117C13.4947 17.1117 10.4753 14.9863 10.1597 11.9702C9.84407 8.95412 7.75327 4.17459 8.30862 4.11649C8.30862 4.11649 15.9531 8.3149 16.2687 11.331Z" fill="url(#paint0_linear_8012_22012)"/>
<path d="M16.2687 11.331C16.5843 14.3471 13.7856 17.2376 13.7856 17.1117C13.4947 17.1117 10.4753 14.9863 10.1597 11.9702C9.84407 8.95412 7.75327 4.17459 8.30862 4.11649C8.30862 4.11649 15.9531 8.3149 16.2687 11.331Z" fill="url(#paint1_linear_8012_22012)"/>
<path d="M20.089 17.8229C18.2879 20.2627 13.9004 20.7164 14.357 20.4164C14.1028 20.5834 13.9396 17.4674 16.6021 14.7821C19.2646 12.0967 18.6282 6.79604 19.0774 7.12768C19.0774 7.12768 21.8901 15.3832 20.089 17.8229Z" fill="white"/>
<path d="M20.089 17.8229C18.2879 20.2627 13.9004 20.7164 14.357 20.4164C14.1028 20.5834 13.9396 17.4674 16.6021 14.7821C19.2646 12.0967 18.6282 6.79604 19.0774 7.12768C19.0774 7.12768 21.8901 15.3832 20.089 17.8229Z" fill="white"/>
<path d="M7.92116 19.5971C10.2877 21.4933 14.6449 20.8066 14.1266 20.6338C14.4151 20.73 13.7738 17.6764 10.5116 15.7636C7.24946 13.8509 6.50517 8.56434 6.15602 9.00009C6.15602 9.00009 5.55459 17.7009 7.92116 19.5971Z" fill="white"/>
<path d="M7.92116 19.5971C10.2877 21.4933 14.6449 20.8066 14.1266 20.6338C14.4151 20.73 13.7738 17.6764 10.5116 15.7636C7.24946 13.8509 6.50517 8.56434 6.15602 9.00009C6.15602 9.00009 5.55459 17.7009 7.92116 19.5971Z" fill="white"/>
<path d="M21.1083 24.0845C18.4971 25.6265 14.281 24.3299 14.8186 24.2322C14.5194 24.2865 15.5866 21.3545 19.0867 19.9229C22.5868 18.4913 24.072 13.3633 24.356 13.8441C24.356 13.8441 23.7195 22.5424 21.1083 24.0845Z" fill="white"/>
<path d="M19.2964 31.3971C16.4623 32.4762 12.5257 30.4863 13.072 30.4807C12.7679 30.4838 14.3148 27.774 18.0064 26.9539C21.6979 26.1338 24.0277 21.3302 24.2264 21.8521C24.2264 21.8521 22.1304 30.318 19.2964 31.3971Z" fill="white"/>
<path d="M7.48005 31.2112C10.3141 32.2902 14.2507 30.3004 13.7044 30.2948C14.0085 30.2979 12.4616 27.5881 8.77004 26.768C5.07848 25.9479 2.74876 21.1443 2.55008 21.6662C2.55008 21.6662 4.64598 30.1321 7.48005 31.2112Z" fill="white"/>
<path d="M8.78436 25.616C11.6895 26.4856 15.4707 24.2142 14.9254 24.2484C15.2289 24.2294 13.4886 21.6395 9.74712 21.0906C6.00561 20.5417 3.33202 15.9207 3.17189 16.4556C3.17189 16.4556 5.87919 24.7463 8.78436 25.616Z" fill="white"/>
<path d="M19.2964 31.3971C16.4623 32.4762 12.5257 30.4863 13.072 30.4807C12.7679 30.4838 14.3148 27.774 18.0064 26.9539C21.6979 26.1338 24.0277 21.3302 24.2264 21.8521C24.2264 21.8521 22.1304 30.318 19.2964 31.3971Z" fill="white"/>
<path d="M42.6882 7.97909H40.0002C39.6962 6.90709 38.9282 6.33109 37.8402 6.33109C36.1922 6.33109 35.2482 7.70709 35.2482 9.94709C35.2482 12.2031 36.1762 13.5311 37.8402 13.5311C38.8642 13.5311 39.6642 12.9871 39.9682 11.9631H42.6882C42.1282 14.3631 40.1922 15.6271 37.8722 15.6271C34.6242 15.6271 32.6242 13.4671 32.6242 9.94709C32.6242 6.42709 34.6242 4.23509 37.9042 4.23509C40.2402 4.23509 42.2242 5.49909 42.6882 7.97909ZM50.8364 15.6271C47.4604 15.6271 45.3804 13.4511 45.3804 9.94709C45.3804 6.42709 47.4604 4.23509 50.8364 4.23509C54.1964 4.23509 56.2764 6.42709 56.2764 9.94709C56.2764 13.4511 54.1964 15.6271 50.8364 15.6271ZM50.8364 13.5311C52.6124 13.5311 53.6524 12.1871 53.6524 9.94709C53.6524 7.70709 52.6124 6.33109 50.8364 6.33109C49.0444 6.33109 48.0044 7.69109 48.0044 9.94709C48.0044 12.1871 49.0444 13.5311 50.8364 13.5311ZM59.473 15.3711V4.49109H62.849L65.217 10.9231L65.681 12.5391L66.145 10.9231L68.513 4.49109H71.793V15.3711H69.233L69.377 7.35509L68.545 10.0591L66.561 15.3711H64.705L62.705 10.0271L61.889 7.37109L62.033 15.3711H59.473ZM75.3387 15.3711V4.49109H78.7147L81.0827 10.9231L81.5467 12.5391L82.0107 10.9231L84.3787 4.49109H87.6587V15.3711H85.0987L85.2427 7.35509L84.4107 10.0591L82.4267 15.3711H80.5707L78.5707 10.0271L77.7547 7.37109L77.8987 15.3711H75.3387ZM96.3083 15.6271C92.9323 15.6271 90.8523 13.4511 90.8523 9.94709C90.8523 6.42709 92.9323 4.23509 96.3083 4.23509C99.6683 4.23509 101.748 6.42709 101.748 9.94709C101.748 13.4511 99.6683 15.6271 96.3083 15.6271ZM96.3083 13.5311C98.0843 13.5311 99.1243 12.1871 99.1243 9.94709C99.1243 7.70709 98.0843 6.33109 96.3083 6.33109C94.5163 6.33109 93.4763 7.69109 93.4763 9.94709C93.4763 12.1871 94.5163 13.5311 96.3083 13.5311ZM104.945 15.3711V4.49109H109.121C112.561 4.49109 114.705 6.55509 114.705 9.94709C114.705 13.3391 112.561 15.3711 109.121 15.3711H104.945ZM109.121 13.2911C110.993 13.2911 112.081 12.0591 112.081 9.94709C112.081 7.81909 110.993 6.57109 109.121 6.57109H107.505V13.2911H109.121ZM117.904 15.3711V4.49109H120.464V15.3711H117.904ZM126.804 15.3711V6.58709H123.428V4.49109H132.756V6.58709H129.38V15.3711H126.804ZM138.562 15.3711V11.5951L134.834 4.49109H137.698L139.474 8.15509L139.938 9.40309L140.386 8.15509L142.146 4.49109H144.882L141.138 11.5951V15.3711H138.562ZM42.1922 33.3711H41.0882L40.9762 31.6591C40.3042 32.9551 39.1042 33.5631 37.6642 33.5631C34.7202 33.5631 32.8482 31.4351 32.8482 27.9471C32.8482 24.4751 34.7202 22.2991 37.7922 22.2991C39.8882 22.2991 41.6802 23.4511 42.2082 25.6271H40.6722C40.2722 24.2991 39.1362 23.5631 37.7442 23.5631C35.6162 23.5631 34.3522 25.2271 34.3522 27.9471C34.3522 30.6671 35.6322 32.2991 37.7922 32.2991C39.4082 32.2991 40.6882 31.3071 40.7842 28.9711H38.0002V27.8031H42.1922V33.3711ZM44.3389 33.3711V24.8751H45.7469V26.1871C46.3229 25.1471 47.2349 24.6671 48.2589 24.6671C48.5949 24.6671 48.8989 24.7471 49.0589 24.8751V26.1391C48.8189 26.0591 48.5149 26.0271 48.1789 26.0271C46.4829 26.0271 45.7469 27.0831 45.7469 28.6191V33.3711H44.3389ZM51.4474 27.6431H50.0394C50.3114 25.7711 51.5434 24.6671 53.6234 24.6671C55.8954 24.6671 56.9994 25.9951 56.9994 27.9791V31.3231C56.9994 32.2991 57.0794 32.9071 57.3034 33.3711H55.8154C55.6554 33.0351 55.6074 32.5391 55.5914 32.0271C54.8714 33.0991 53.7194 33.5631 52.6954 33.5631C50.9354 33.5631 49.7514 32.7471 49.7514 31.1311C49.7514 29.9631 50.3914 29.1151 51.6394 28.6991C52.7914 28.3151 53.9594 28.2191 55.5914 28.2031V28.0111C55.5914 26.6351 54.9514 25.8831 53.4954 25.8831C52.2794 25.8831 51.6234 26.5551 51.4474 27.6431ZM51.1914 31.0991C51.1914 31.8831 51.8474 32.3471 52.8394 32.3471C54.4074 32.3471 55.5914 31.1151 55.5914 29.6591V29.2591C51.9754 29.2911 51.1914 30.0591 51.1914 31.0991ZM62.4917 33.5631C60.2357 33.5631 58.8757 31.8991 58.8757 29.1311C58.8757 26.2511 60.2677 24.6671 62.4917 24.6671C63.4997 24.6671 64.3157 25.0831 64.8757 25.8671V21.8511H66.2837V33.3711H64.8757V32.2991C64.3157 33.0991 63.4997 33.5631 62.4917 33.5631ZM62.5877 32.3471C64.0757 32.3471 64.8757 31.2111 64.8757 29.1311C64.8757 27.0671 64.0437 25.8831 62.5877 25.8831C61.1157 25.8831 60.3157 27.0351 60.3157 29.1311C60.3157 31.1791 61.1477 32.3471 62.5877 32.3471ZM68.5264 23.7391V21.8511H69.9344V23.7391H68.5264ZM68.5264 33.3711V24.8751H69.9344V33.3711H68.5264ZM72.167 33.3711V24.8751H73.575V26.0271C74.151 25.1311 75.079 24.6671 76.199 24.6671C78.007 24.6671 79.079 25.7231 79.079 27.6911V33.3711H77.671V27.9791C77.671 26.6991 77.095 25.8671 75.815 25.8671C74.407 25.8671 73.575 27.1311 73.575 28.3471V33.3711H72.167ZM84.3473 33.4351C82.1873 33.4351 80.8913 31.7871 80.8913 29.0671C80.8913 26.2191 82.2193 24.6671 84.3473 24.6671C85.4833 24.6671 86.3313 25.0671 86.8913 25.8031V24.8751H88.2993V33.6271C88.2993 35.9951 86.7793 37.0991 84.8273 37.0991C82.8273 37.0991 81.4193 36.1391 81.1153 34.2031H82.5233C82.6993 35.3231 83.5793 35.9311 84.8113 35.9311C86.0593 35.9311 86.8913 35.2591 86.8913 33.6751V32.2191C86.2993 33.0191 85.4353 33.4351 84.3473 33.4351ZM84.6033 32.2191C86.0913 32.2191 86.8913 31.0991 86.8913 29.0511C86.8913 27.0511 86.0593 25.8831 84.6033 25.8831C83.1313 25.8831 82.3313 27.0031 82.3313 29.0671C82.3313 31.0671 83.1473 32.2191 84.6033 32.2191ZM95.0088 25.1471C95.0088 28.2191 101.681 25.8351 101.681 30.2991C101.681 32.3951 99.9848 33.5631 97.6648 33.5631C95.3288 33.5631 93.7288 32.4911 93.2488 30.2991H94.7848C95.1368 31.5951 96.1128 32.2991 97.6808 32.2991C99.3128 32.2991 100.177 31.5791 100.177 30.4911C100.177 27.1631 93.5048 29.6431 93.5048 25.2431C93.5048 23.6751 94.8168 22.2991 97.2168 22.2991C99.3128 22.2991 100.993 23.3071 101.393 25.6271H99.8408C99.5048 24.1871 98.5768 23.5631 97.1848 23.5631C95.8088 23.5631 95.0088 24.1871 95.0088 25.1471ZM103.785 37.0831C103.465 37.0831 103.129 37.0031 102.953 36.9551V35.8671H103.385C104.425 35.8671 104.713 35.6591 105.545 33.7551L105.833 33.0991L102.361 24.8751H103.881L106.185 30.4911L106.569 31.6271L106.953 30.4911L109.193 24.8751H110.633L106.665 34.4911C105.817 36.5391 105.257 37.0831 103.785 37.0831ZM112.723 27.0511C112.723 29.4191 118.243 27.4671 118.243 30.9711C118.243 32.5551 116.835 33.5631 114.835 33.5631C112.819 33.5631 111.411 32.6031 111.091 30.6031H112.499C112.691 31.7871 113.571 32.4431 114.883 32.4431C116.163 32.4431 116.835 31.8671 116.835 31.0671C116.835 28.7471 111.379 30.6671 111.379 27.1471C111.379 25.8511 112.387 24.6671 114.467 24.6671C116.307 24.6671 117.667 25.5311 117.939 27.6431H116.531C116.323 26.3151 115.587 25.8191 114.387 25.8191C113.331 25.8191 112.723 26.3471 112.723 27.0511ZM120.109 30.9231V25.9951H118.925V24.8751H120.109V22.9231H121.517V24.8751H123.389V25.9951H121.517V30.9231C121.517 31.9471 121.821 32.4271 123.069 32.4271H123.357V33.4351C123.197 33.5151 122.845 33.5631 122.445 33.5631C120.861 33.5631 120.109 32.7151 120.109 30.9231ZM132.074 30.6031C131.61 32.5871 130.186 33.5631 128.25 33.5631C125.786 33.5631 124.298 31.8991 124.298 29.1311C124.298 26.2511 125.786 24.6671 128.17 24.6671C130.57 24.6671 132.01 26.3151 132.01 29.0191V29.3711H125.738C125.818 31.2751 126.714 32.3471 128.25 32.3471C129.45 32.3471 130.298 31.7711 130.602 30.6031H132.074ZM128.17 25.8831C126.81 25.8831 125.994 26.7311 125.786 28.3151H130.538C130.346 26.7471 129.498 25.8831 128.17 25.8831ZM133.886 33.3711V24.8751H135.294V25.9631C135.838 25.0991 136.686 24.6671 137.726 24.6671C138.894 24.6671 139.742 25.1791 140.142 26.1711C140.702 25.1791 141.63 24.6671 142.766 24.6671C144.494 24.6671 145.534 25.7231 145.534 27.6911V33.3711H144.126V27.9791C144.126 26.6991 143.614 25.8671 142.462 25.8671C141.182 25.8671 140.414 27.1311 140.414 28.3471V33.3711H139.006V27.9791C139.006 26.6991 138.494 25.8671 137.342 25.8671C136.062 25.8671 135.294 27.1311 135.294 28.3471V33.3711H133.886Z" fill="white"/>
<defs>
<linearGradient id="paint0_linear_8012_22012" x1="8.18991" y1="3.37073" x2="14.2392" y2="16.5862" gradientUnits="userSpaceOnUse">
<stop stop-color="#195B3E"/>
<stop offset="1" stop-color="#F2FBF7"/>
</linearGradient>
<linearGradient id="paint1_linear_8012_22012" x1="8.18991" y1="3.37073" x2="14.2392" y2="16.5862" gradientUnits="userSpaceOnUse">
<stop stop-color="#195B3E"/>
<stop offset="1" stop-color="#F2FBF7"/>
</linearGradient>
</defs>
</svg>
